<svg xmlns="http://www.w3.org/2000/svg" xml:space="preserve" width="2.235in" height="2.235in" version="1.1" style="shape-rendering:geometricPrecision; text-rendering:geometricPrecision; image-rendering:optimizeQuality; fill-rule:evenodd; clip-rule:evenodd"
     viewBox="0 0 2297 2297"
     xmlns:xlink="http://www.w3.org/1999/xlink">
 <defs>
  <style type="text/css">
   <![CDATA[
    .fil0 {fill:#0069d9}
   ]]>
  </style>
 </defs>
    <g id="Layer_x0020_1">
  <path id="_247399424" class="fil0" d="M1148 0c634,0 1149,514 1149,1149 0,634 -515,1148 -1149,1148 -634,0 -1148,-514 -1148,-1148 0,-635 514,-1149 1148,-1149zm0 125c397,0 718,451 718,1006 0,555 -321,1005 -718,1005 -397,0 -717,-450 -717,-1005 0,-555 320,-1006 717,-1006z"/>
        <path id="_246881848" class="fil0" d="M546 724l122 0c96,122 274,203 480,203 206,0 384,-81 481,-203l122 0 0 812 -122 0c-97,-121 -275,-202 -481,-202 -206,0 -384,81 -480,202l-122 0 0 -812zm112 382l0 69c0,8 2,14 4,19 3,5 6,8 10,8 3,0 7,-3 14,-8 1,-1 2,-1 4,-1 2,0 4,2 5,5 2,4 3,9 3,14 0,8 -3,16 -9,23 -13,17 -27,25 -46,25 -13,0 -24,-6 -33,-18 -8,-13 -12,-28 -12,-49l0 -93c0,-3 -1,-5 -1,-6 -1,-2 -2,-2 -4,-2l-13 0c-2,0 -4,0 -5,-2 0,-1 -2,-4 -2,-9l0 -8c2,-4 3,-7 4,-9l60 -59c1,-1 3,-2 5,-2l11 0c2,0 4,1 4,3 1,1 1,4 1,9l0 27c0,4 1,7 2,8 0,1 2,2 5,2l24 0c3,0 5,1 6,3 1,2 2,6 2,12l0 12c0,6 -1,10 -2,13 -1,3 -3,4 -7,4l-23 0c-3,0 -4,1 -5,2 -1,2 -2,4 -2,8zm120 -118l-2 85c0,9 2,14 6,14 2,0 4,-2 6,-6 9,-19 20,-29 34,-29 14,0 25,7 33,20 4,6 6,13 8,20 1,9 2,20 2,35l1 73c0,7 1,12 2,15 1,3 4,6 8,11 2,3 3,6 3,11 0,15 -15,22 -42,22 -26,0 -38,-7 -38,-21 0,-2 0,-4 1,-5 0,-1 2,-5 4,-10 4,-7 5,-26 5,-55 0,-19 -1,-31 -3,-40 -3,-11 -8,-17 -16,-17 -5,0 -9,3 -11,9 -2,4 -3,13 -3,25l0 39c1,17 1,27 2,29 0,3 2,7 6,13 1,3 2,6 2,10 0,15 -12,23 -38,23 -30,0 -45,-8 -45,-24 0,-4 0,-7 1,-8 1,-2 4,-5 7,-9 3,-4 6,-13 7,-30 1,-16 2,-42 2,-80 0,-29 -1,-49 -2,-61 0,-4 -1,-7 -2,-9 -1,-1 -2,-3 -5,-5 -5,-5 -8,-9 -8,-16 0,-7 2,-12 6,-16 4,-4 12,-9 24,-13 16,-8 29,-11 38,-11 5,0 7,3 7,11zm229 175l-61 0c-3,0 -5,2 -5,7 0,8 4,16 10,24 6,8 13,12 20,12 4,0 8,-1 14,-4 5,-3 9,-6 12,-9 3,-4 5,-5 7,-5 2,0 4,2 7,6 2,4 3,9 3,14 0,10 -4,19 -12,28 -13,16 -30,24 -47,24 -19,0 -34,-8 -46,-25 -7,-8 -12,-17 -15,-29 -5,-15 -8,-31 -8,-49 0,-22 4,-43 13,-60 9,-17 18,-28 30,-35 8,-7 19,-10 29,-10 16,0 30,8 42,22 5,7 10,16 13,27 4,11 7,22 7,33 0,9 -2,16 -4,21 -2,6 -5,8 -9,8zm-57 -38l12 0c6,0 9,-4 9,-11 0,-7 -2,-13 -4,-18 -3,-5 -6,-7 -11,-7 -4,0 -8,2 -11,9 -3,6 -5,11 -5,17 0,4 1,6 2,8 1,2 5,2 8,2zm154 -19l0 69c0,8 1,14 4,19 2,5 6,8 10,8 3,0 7,-3 14,-8 1,-1 2,-1 3,-1 2,0 4,2 6,5 2,4 3,9 3,14 0,8 -3,16 -9,23 -13,17 -28,25 -46,25 -13,0 -24,-6 -32,-18 -10,-13 -14,-28 -14,-49l0 -93c0,-3 0,-5 0,-6 -1,-2 -2,-2 -4,-2l-13 0c-3,0 -4,0 -5,-2 0,-1 -1,-4 -1,-9l0 -8c0,-4 1,-7 3,-9l59 -59c2,-1 3,-2 6,-2l11 0c2,0 3,1 4,3 1,1 1,4 1,9l0 27c0,4 1,7 1,8 1,1 3,2 6,2l24 0c3,0 5,1 6,3 1,2 2,6 2,12l0 12c0,6 -1,10 -2,13 -1,3 -4,4 -7,4l-24 0c-2,0 -4,1 -4,2 -1,2 -2,4 -2,8zm122 -54c16,0 28,7 38,18 6,6 10,14 12,21 3,9 4,20 4,34l0 31c0,21 1,35 3,41 0,2 1,4 2,5 1,1 3,3 6,3 2,1 4,4 4,9 0,6 -2,13 -5,19 -4,7 -8,14 -14,19 -6,5 -13,8 -20,8 -9,0 -17,-4 -22,-14 -2,-3 -3,-6 -5,-6 -2,0 -4,3 -7,6 -8,9 -19,14 -29,14 -11,0 -20,-3 -28,-11 -5,-5 -8,-12 -11,-20 -3,-8 -4,-16 -4,-24 0,-15 4,-27 11,-39 12,-17 28,-25 52,-25 4,0 8,-1 9,-2 1,-2 2,-5 2,-12 0,-14 -1,-24 -3,-30 -2,-7 -5,-11 -9,-11 -3,0 -5,2 -7,4 -3,2 -5,8 -8,14 -8,17 -16,25 -24,25 -4,0 -9,-2 -11,-6 -3,-3 -4,-8 -4,-15 0,-6 1,-12 5,-20 3,-6 8,-11 14,-16 15,-13 32,-20 49,-20zm-9 118c-3,0 -6,3 -9,7 -3,5 -5,11 -5,17 0,7 2,13 4,17 2,4 4,6 7,6 7,0 10,-9 10,-28 0,-7 0,-12 -1,-15 -1,-2 -3,-4 -6,-4zm121 -6c8,0 16,5 22,14 6,9 9,20 9,35 0,13 -3,24 -9,34 -6,9 -14,13 -22,13 -8,0 -15,-4 -21,-13 -7,-10 -10,-21 -10,-34 0,-15 3,-26 10,-35 6,-9 13,-14 21,-14zm182 -48l-34 103c-5,15 -10,27 -13,33 -4,6 -8,9 -13,9 -4,0 -7,-3 -9,-7 -6,-9 -10,-20 -14,-32l-37 -109c-2,-6 -4,-10 -6,-13 -1,-2 -4,-4 -8,-5 -7,-4 -10,-10 -10,-18 0,-8 4,-14 12,-17 9,-5 22,-7 40,-7 14,0 25,2 32,6 7,3 11,8 11,15 0,5 -2,9 -5,14 -2,3 -4,6 -5,7 -1,2 -1,3 -1,6 0,4 2,12 7,22 3,11 7,16 10,16 2,0 4,-1 5,-4 2,-2 4,-9 8,-20 2,-8 4,-13 4,-17 0,-3 -2,-8 -4,-13 -3,-4 -5,-9 -5,-13 0,-6 3,-11 8,-13 6,-4 16,-6 28,-6 18,0 27,7 27,19 0,7 -3,11 -10,14 -5,3 -9,5 -10,9 -2,3 -5,10 -8,21zm189 11l2 72c0,6 0,10 1,12 1,3 4,8 8,15 1,2 3,5 3,9 0,9 -4,15 -11,19 -7,3 -19,5 -37,5 -12,0 -20,-2 -25,-5 -6,-3 -8,-9 -8,-17 0,-3 0,-4 1,-6 0,-1 2,-4 6,-9 3,-5 5,-25 5,-57 0,-18 -2,-32 -4,-42 -4,-7 -8,-10 -14,-10 -5,0 -9,3 -11,8 -2,6 -3,17 -3,32l0 40c0,8 0,14 1,17 0,3 2,9 6,17 1,3 1,5 1,8 0,9 -3,15 -10,19 -7,3 -19,5 -34,5 -24,0 -36,-8 -36,-24 0,-3 0,-5 1,-7 1,-2 3,-4 5,-7 3,-2 4,-5 5,-9 0,-3 1,-12 1,-24 1,-15 1,-32 1,-49 0,-10 0,-16 -1,-18 -1,-3 -4,-7 -8,-11 -4,-3 -5,-8 -5,-13 0,-6 1,-10 4,-14 3,-3 9,-7 18,-13 9,-4 17,-8 25,-11 7,-4 12,-6 16,-6 3,0 5,2 7,6 1,3 2,6 2,10 0,0 0,2 0,5 0,1 0,2 0,3 0,6 2,9 5,9 2,0 4,-2 7,-7 7,-17 18,-26 32,-26 11,0 21,6 29,14 5,6 9,14 11,22 2,9 3,22 4,38z"/>
 </g>
</svg>
